wght1000.ufo
<glyph name="zero" format="2">
	<unicode hex="0030"/>
	<advance width="1207"/>
	<outline>
		<contour>
			<point x="74.0014648438" y="747.2963867188" type="qcurve" smooth="yes"/>
			<point x="74.0014648438" y="1114.858581543"/>
			<point x="389.7486572266" y="1509.0347900391"/>
			<point x="606.4030761719" y="1509.0347900391" type="qcurve" smooth="yes"/>
			<point x="824.302734375" y="1509.0347900391"/>
			<point x="1133.2752685547" y="1119.8186035156"/>
			<point x="1133.2752685547" y="750.2564086914" type="qcurve" smooth="yes"/>
			<point x="1133.2752685547" y="393.5343017578"/>
			<point x="830.5690917969" y="-21.5219726562"/>
			<point x="612.9324951172" y="-21.5219726562" type="qcurve" smooth="yes"/>
			<point x="394.5034179688" y="-21.5219726562"/>
			<point x="74.0014648438" y="372.0229492188"/>
		</contour>
		<contour>
			<point x="274.8715820312" y="761.9276733398" type="qcurve" smooth="yes"/>
			<point x="259" y="481"/>
			<point x="438.9126586914" y="91.5695800781"/>
			<point x="603.4030761719" y="91.5695800781" type="qcurve" smooth="yes"/>
			<point x="769.8934936523" y="91.5695800781"/>
			<point x="917" y="447"/>
			<point x="932.4051513672" y="746.2963867188" type="qcurve" smooth="yes"/>
			<point x="917" y="1027"/>
			<point x="763.4229125977" y="1381.0863037109"/>
			<point x="603.9324951172" y="1381.0863037109" type="qcurve" smooth="yes"/>
			<point x="442.4420776367" y="1381.0863037109"/>
			<point x="259" y="1060"/>
		</contour>
	</outline>
</glyph>
<glyph name="one" format="2">
	<unicode hex="0031"/>
	<advance width="875"/>
	<outline>
		<contour>
			<point x="129.9432373047" y="0" type="line"/>
			<point x="129.9432373047" y="93.9951171875" type="line"/>
			<point x="387.9426269531" y="128.9951171875" type="line"/>
			<point x="387.9426269531" y="750.4019775391" type="line"/>
			<point x="385.9426269531" y="1317.5943603516" type="line"/>
			<point x="79.7065429688" y="1359.0577392578" type="line"/>
			<point x="79.7065429688" y="1473.0054931641" type="line"/>
			<point x="537.2099609375" y="1488.5421142578" type="line"/>
			<point x="569.2099609375" y="1453.5421142578" type="line"/>
			<point x="563.2099609375" y="750.4019775391" type="line"/>
			<point x="563.2099609375" y="128.9951171875" type="line"/>
			<point x="821.2093505859" y="93.9951171875" type="line"/>
			<point x="821.2093505859" y="0" type="line"/>
		</contour>
	</outline>
</glyph>
<glyph name="two" format="2">
	<unicode hex="0032"/>
	<advance width="1186"/>
	<outline>
		<contour>
			<point x="74.8388671875" y="0" type="line"/>
			<point x="74.8388671875" y="8.0263671875" type="line"/>
			<point x="85.625793457" y="115.8346557617"/>
			<point x="344.9487915039" y="383.7336425781"/>
			<point x="513.6424560547" y="514.0202636719" type="qcurve" smooth="yes"/>
			<point x="707.2459716797" y="664.3748779297"/>
			<point x="873.1044921875" y="929.579284668"/>
			<point x="873.1044921875" y="1060.4788818359" type="qcurve" smooth="yes"/>
			<point x="873.1044921875" y="1183.5325317383"/>
			<point x="715.5467529297" y="1284.7435302734"/>
			<point x="599.6354980469" y="1284.7435302734" type="qcurve" smooth="yes"/>
			<point x="473.6514892578" y="1284.7435302734"/>
			<point x="246.2913818359" y="1183.552734375"/>
			<point x="154.8388671875" y="1094.9061279297" type="qcurve"/>
			<point x="71.8388671875" y="1223.9510498047" type="line"/>
			<point x="160.6940917969" y="1321.3173828125"/>
			<point x="453.4265136719" y="1510.0347900391"/>
			<point x="689.7288208008" y="1510.0347900391" type="qcurve" smooth="yes"/>
			<point x="813.0235595703" y="1510.0347900391"/>
			<point x="1082.84375" y="1300.4367675781"/>
			<point x="1087.84375" y="1083.2630615234" type="qcurve" smooth="yes"/>
			<point x="1093.84375" y="828.3936767578"/>
			<point x="780.2767944336" y="523.2796020508"/>
			<point x="687.9732666016" y="458.6926269531" type="qcurve" smooth="yes"/>
			<point x="460.6874389648" y="340.5092163086"/>
			<point x="223.3627319336" y="151.9706420898"/>
			<point x="186.6975097656" y="71.1016845703" type="qcurve"/>
			<point x="190.6975097656" y="59.6223144531" type="line"/>
			<point x="1116.2364501953" y="59.6223144531" type="line"/>
			<point x="1116.2364501953" y="0" type="line"/>
		</contour>
	</outline>
</glyph>
<glyph name="three" format="2">
	<unicode hex="0033"/>
	<advance width="1147"/>
	<outline>
		<contour>
			<point x="-1.7827148438" y="121" type="qcurve"/>
			<point x="91.2873535156" y="264.4038085938" type="line"/>
			<point x="155.1508789062" y="211.2475585938"/>
			<point x="323.3973388672" y="144.7810058594"/>
			<point x="455.9860839844" y="144.7810058594" type="qcurve" smooth="yes"/>
			<point x="586.1617431641" y="144.7810058594"/>
			<point x="769.1088867188" y="273.225769043"/>
			<point x="769.1088867188" y="419.8142700195" type="qcurve" smooth="yes"/>
			<point x="769.1088867188" y="592.3908691406"/>
			<point x="528.5256347656" y="709.2698364258"/>
			<point x="348.9556884766" y="709.2698364258" type="qcurve" smooth="yes"/>
			<point x="281.7347412109" y="709.2698364258" type="line"/>
			<point x="237.5581054688" y="840.8892822266" type="line"/>
			<point x="364.2564697266" y="846.5900878906" type="line" smooth="yes"/>
			<point x="526.4699707031" y="853.4680175781"/>
			<point x="744.7769775391" y="981.7166137695"/>
			<point x="741.7769775391" y="1139.5498657227" type="qcurve" smooth="yes"/>
			<point x="739.7769775391" y="1236.6378173828"/>
			<point x="610.1029052734" y="1332.8471069336"/>
			<point x="513.1105957031" y="1332.8471069336" type="qcurve" smooth="yes"/>
			<point x="388.0122070312" y="1332.8471069336"/>
			<point x="235.4896240234" y="1253.264465332"/>
			<point x="158.0344238281" y="1177.9990234375" type="qcurve"/>
			<point x="72.0673828125" y="1326.4194946289" type="line"/>
			<point x="149.0206298828" y="1402.0614624023"/>
			<point x="374.1184082031" y="1507.9548339844"/>
			<point x="571.9224853516" y="1507.9548339844" type="qcurve" smooth="yes"/>
			<point x="770.9625244141" y="1507.9548339844"/>
			<point x="1001.1190185547" y="1328.1541748047"/>
			<point x="1001.1190185547" y="1177.1243286133" type="qcurve" smooth="yes"/>
			<point x="1001.1190185547" y="1016.1237792969"/>
			<point x="830.3670654297" y="844.9913330078"/>
			<point x="640.9191894531" y="809.6029663086" type="qcurve"/>
			<point x="640.9191894531" y="802.6829223633" type="line"/>
			<point x="820.3670654297" y="783.6419067383"/>
			<point x="1042.8514404297" y="599.2420654297"/>
			<point x="1042.8514404297" y="419.0980224609" type="qcurve" smooth="yes"/>
			<point x="1042.8514404297" y="222.5763549805"/>
			<point x="756.9592285156" y="-21.0244140625"/>
			<point x="498.7915039062" y="-21.0244140625" type="qcurve" smooth="yes"/>
			<point x="326.0688476562" y="-21.0244140625"/>
			<point x="29.3443603516" y="81.0113525391"/>
		</contour>
	</outline>
</glyph>
<glyph name="four" format="2">
	<unicode hex="0034"/>
	<advance width="1420"/>
	<outline>
		<contour>
			<point x="32.08203125" y="532.9616699219" type="line"/>
			<point x="1008.2030029297" y="1490.5855712891" type="line"/>
			<point x="1294.4508056641" y="1473.5855712891" type="line"/>
			<point x="1076.4703369141" y="1417.5855712891" type="line"/>
			<point x="1071.4703369141" y="511.9616699219" type="line"/>
			<point x="1070.4703369141" y="128.9951171875" type="line"/>
			<point x="1292.3070068359" y="93.9951171875" type="line"/>
			<point x="1292.3070068359" y="0" type="line"/>
			<point x="680.9787597656" y="0" type="line"/>
			<point x="680.9787597656" y="93.9951171875" type="line"/>
			<point x="910.2030029297" y="128.9951171875" type="line"/>
			<point x="912.2030029297" y="509.9616699219" type="line"/>
			<point x="906.2030029297" y="1221.9126586914" type="line"/>
			<point x="247.8752441406" y="583.6000976562" type="line"/>
			<point x="247.8752441406" y="565.6000976562" type="line"/>
			<point x="1394.7067871094" y="562.4235839844" type="line"/>
			<point x="1394.7067871094" y="435.8461914062" type="line"/>
			<point x="52.08203125" y="410.8461914062" type="line"/>
		</contour>
	</outline>
</glyph>
<glyph name="five" format="2">
	<unicode hex="0035"/>
	<advance width="1158"/>
	<outline>
		<contour>
			<point x="-2.0532226562" y="121" type="qcurve"/>
			<point x="85.5938720703" y="267.1002807617" type="line"/>
			<point x="155.9847412109" y="225.9099731445"/>
			<point x="361.7067871094" y="147.6945800781"/>
			<point x="498.5607910156" y="147.6945800781" type="qcurve" smooth="yes"/>
			<point x="639.4490966797" y="147.6945800781"/>
			<point x="843.5861816406" y="291.819152832"/>
			<point x="843.5861816406" y="462.1340332031" type="qcurve" smooth="yes"/>
			<point x="843.5861816406" y="605.8297119141"/>
			<point x="591.9318847656" y="740.8226928711"/>
			<point x="361.2418212891" y="740.8226928711" type="qcurve" smooth="yes"/>
			<point x="236.7706298828" y="740.8226928711" type="line"/>
			<point x="205.7706298828" y="767.7229003906" type="line"/>
			<point x="246.7706298828" y="1457.6451416016" type="line"/>
			<point x="273.7706298828" y="1490.6451416016" type="line"/>
			<point x="1015.5584716797" y="1490.6451416016" type="line"/>
			<point x="1032.9187011719" y="1413.6864013672" type="line"/>
			<point x="396.4449462891" y="1413.6864013672" type="line"/>
			<point x="381.2735595703" y="1395.6864013672" type="line"/>
			<point x="330.0894775391" y="876.1226806641" type="line"/>
			<point x="573.6312255859" y="925.8828125" type="line"/>
			<point x="762.0080566406" y="930.9727783203"/>
			<point x="1071.6572265625" y="685.2587890625"/>
			<point x="1071.6572265625" y="467.9732055664" type="qcurve" smooth="yes"/>
			<point x="1071.6572265625" y="239.4963989258"/>
			<point x="775.5764160156" y="-21.0244140625"/>
			<point x="563.9011230469" y="-21.0244140625" type="qcurve" smooth="yes"/>
			<point x="377.1212158203" y="-21.0244140625"/>
			<point x="57.6345214844" y="74.6888427734"/>
		</contour>
	</outline>
</glyph>
<glyph name="six" format="2">
	<unicode hex="0036"/>
	<advance width="1174"/>
	<outline>
		<contour>
			<point x="79.0014648438" y="661.9622192383" type="qcurve" smooth="yes"/>
			<point x="79.0014648438" y="1066.7670288086"/>
			<point x="542.91796875" y="1556.2689819336"/>
			<point x="971.7683105469" y="1542.5421142578" type="qcurve"/>
			<point x="948.9445800781" y="1385.5118408203" type="line"/>
			<point x="644.2995605469" y="1389.1522827148"/>
			<point x="278.404296875" y="1007.6577758789"/>
			<point x="278.404296875" y="644.9622192383" type="qcurve" smooth="yes"/>
			<point x="278.404296875" y="397.6688232422"/>
			<point x="491.7122192383" y="99.4775390625"/>
			<point x="648.2890625" y="99.4775390625" type="qcurve" smooth="yes"/>
			<point x="800.2936401367" y="99.4775390625"/>
			<point x="963.6759033203" y="327.9170532227"/>
			<point x="963.7615966797" y="465.4838867188" type="qcurve" smooth="yes"/>
			<point x="963.8472900391" y="622.5866699219"/>
			<point x="820.7206420898" y="805.8563842773"/>
			<point x="674.2302246094" y="805.8563842773" type="qcurve" smooth="yes"/>
			<point x="602.286315918" y="805.8563842773"/>
			<point x="509.615234375" y="788.1199951172"/>
			<point x="477.0313720703" y="783.2604370117" type="qcurve"/>
			<point x="442.111328125" y="867.9733276367" type="line"/>
			<point x="441.4326171875" y="887.4901733398"/>
			<point x="562.8637084961" y="953.4324951172"/>
			<point x="624.8505859375" y="953.4324951172" type="qcurve" smooth="yes"/>
			<point x="862.4611206055" y="953.4324951172"/>
			<point x="1118.7017822266" y="725.5224609375"/>
			<point x="1118.7017822266" y="514.4616699219" type="qcurve" smooth="yes"/>
			<point x="1118.7017822266" y="266.7141113281"/>
			<point x="817.0393066406" y="-18.5268554688"/>
			<point x="632.953125" y="-18.5268554688" type="qcurve" smooth="yes"/>
			<point x="417.5399169922" y="-18.5268554688"/>
			<point x="79.0014648438" y="344.9583129883"/>
		</contour>
	</outline>
</glyph>
<glyph name="seven" format="2">
	<unicode hex="0037"/>
	<advance width="1231"/>
	<outline>
		<contour>
			<point x="52.4976196289" y="1193.8874511719" type="line"/>
			<point x="34.9117431641" y="1490.6451416016" type="line"/>
			<point x="1203.1063232422" y="1490.6451416016" type="line"/>
			<point x="1203.1063232422" y="1460.3736572266" type="line"/>
			<point x="787.0401611328" y="645.8256835938" type="line"/>
			<point x="460.1885986328" y="-17.0439453125" type="line"/>
			<point x="258.5714111328" y="-17.0439453125" type="line"/>
			<point x="258.5714111328" y="64.9560546875" type="line"/>
			<point x="609.7745361328" y="672.9622192383" type="line"/>
			<point x="1095.4847412109" y="1399.3546142578" type="line"/>
			<point x="1058.2508544922" y="1427.8919677734" type="line"/>
			<point x="208.7231445312" y="1427.8919677734" type="line"/>
			<point x="170.5686035156" y="1193.8874511719" type="line"/>
		</contour>
	</outline>
</glyph>
<glyph name="eight" format="2">
	<unicode hex="0038"/>
	<advance width="1211"/>
	<outline>
		<contour>
			<point x="61.9467773438" y="401.458190918" type="qcurve" smooth="yes"/>
			<point x="61.9467773438" y="594.2481079102"/>
			<point x="376.3184814453" y="824.2385864258"/>
			<point x="633.7260742188" y="875.4326171875" type="qcurve"/>
			<point x="726.1478271484" y="821.9425048828" type="line"/>
			<point x="609.4549560547" y="763.0220336914"/>
			<point x="469.6608886719" y="545.6640014648"/>
			<point x="469.6608886719" y="372.9195556641" type="qcurve" smooth="yes"/>
			<point x="469.6608886719" y="236.0204467773"/>
			<point x="532.556640625" y="89.5390625"/>
			<point x="644.73828125" y="89.5390625" type="qcurve" smooth="yes"/>
			<point x="774.8620605469" y="89.5390625"/>
			<point x="981.1655273438" y="273.2284545898"/>
			<point x="981.1655273438" y="425.079284668" type="qcurve" smooth="yes"/>
			<point x="981.1655273438" y="553.3267211914"/>
			<point x="907.8896484375" y="710.4142456055"/>
			<point x="764.2242431641" y="743.6231079102" type="qcurve" smooth="yes"/>
			<point x="437.4187011719" y="870.8396606445"/>
			<point x="212.474609375" y="1042.0331420898"/>
			<point x="216.474609375" y="1237.1948852539" type="qcurve" smooth="yes"/>
			<point x="220.474609375" y="1356.451171875"/>
			<point x="424.3452148438" y="1511.8424072266"/>
			<point x="571.1665039062" y="1511.8424072266" type="qcurve" smooth="yes"/>
			<point x="764.2416992188" y="1511.8424072266"/>
			<point x="1027.4822998047" y="1348.9362792969"/>
			<point x="1027.4822998047" y="1207.5366821289" type="qcurve" smooth="yes"/>
			<point x="1027.4822998047" y="1093.4860229492"/>
			<point x="808.7012939453" y="887.4737548828"/>
			<point x="622.3974609375" y="802.4163208008" type="qcurve"/>
			<point x="506.7225341797" y="849.4173583984" type="line"/>
			<point x="583.0059814453" y="928.9993896484"/>
			<point x="670.6229248047" y="1109.4409179688"/>
			<point x="670.6229248047" y="1210.0335083008" type="qcurve" smooth="yes"/>
			<point x="670.6229248047" y="1297.1401977539"/>
			<point x="594.8466796875" y="1387.8801879883"/>
			<point x="526.1279296875" y="1387.8801879883" type="qcurve" smooth="yes"/>
			<point x="457.7442626953" y="1387.8801879883"/>
			<point x="298.6997070312" y="1256.1544189453"/>
			<point x="298.6997070312" y="1178.8540039062" type="qcurve" smooth="yes"/>
			<point x="298.6997070312" y="1051.7523193359"/>
			<point x="495.6209716797" y="907.2184448242"/>
			<point x="748.904296875" y="826.4377441406" type="qcurve" smooth="yes"/>
			<point x="890.6638183594" y="799.5194702148"/>
			<point x="1150.7497558594" y="594.5432128906"/>
			<point x="1150.7497558594" y="407.3627319336" type="qcurve" smooth="yes"/>
			<point x="1150.7497558594" y="231.5283203125"/>
			<point x="898.9689941406" y="-21.5219726562"/>
			<point x="627.216796875" y="-21.5219726562" type="qcurve" smooth="yes"/>
			<point x="328.4373779297" y="-21.5219726562"/>
			<point x="61.9467773438" y="225.3366699219"/>
		</contour>
	</outline>
</glyph>
<glyph name="nine" format="2">
	<unicode hex="0039"/>
	<advance width="1178"/>
	<outline>
		<contour>
			<point x="63.6496582031" y="980.0095825195" type="qcurve" smooth="yes"/>
			<point x="63.6496582031" y="1213.3011474609"/>
			<point x="368.8737792969" y="1509.7460327148"/>
			<point x="544.9246826172" y="1509.7460327148" type="qcurve" smooth="yes"/>
			<point x="729.7108154297" y="1509.7460327148"/>
			<point x="1101.76171875" y="1163.0172119141"/>
			<point x="1101.76171875" y="828.0530395508" type="qcurve" smooth="yes"/>
			<point x="1101.76171875" y="433.02734375"/>
			<point x="608.665222168" y="-67.9122314453"/>
			<point x="177.5275878906" y="-55.8135986328" type="qcurve"/>
			<point x="201.41015625" y="100.4701538086" type="line"/>
			<point x="502.0970458984" y="94.7120361328"/>
			<point x="891.5522460938" y="482.7459716797"/>
			<point x="891.5522460938" y="845.0130615234" type="qcurve" smooth="yes"/>
			<point x="891.5522460938" y="1104.9259033203"/>
			<point x="684.7991333008" y="1396.1119995117"/>
			<point x="530.4519042969" y="1396.1119995117" type="qcurve" smooth="yes"/>
			<point x="369.4857177734" y="1396.1119995117"/>
			<point x="207.783203125" y="1164.1781616211"/>
			<point x="207.783203125" y="1013.6744384766" type="qcurve" smooth="yes"/>
			<point x="207.783203125" y="842.8695678711"/>
			<point x="377.3540649414" y="671.3004150391"/>
			<point x="535.2358398438" y="671.3004150391" type="qcurve" smooth="yes"/>
			<point x="571.6849365234" y="671.3004150391"/>
			<point x="665.1092529297" y="688.0440673828"/>
			<point x="696.6006469727" y="690.9694213867" type="qcurve"/>
			<point x="731.640625" y="605.7252197266" type="line"/>
			<point x="738.1484985352" y="596.197265625"/>
			<point x="634.888671875" y="520.5209960938"/>
			<point x="505.9935913086" y="521.2546386719" type="qcurve" smooth="yes"/>
			<point x="317.6893920898" y="523.4555664062"/>
			<point x="63.6496582031" y="753.1541137695"/>
		</contour>
	</outline>
</glyph>
<glyph name="B" format="2">
	<unicode hex="0042"/>
	<advance width="1214"/>
	<outline>
		<contour>
			<point x="82.0052490234" y="0" type="line"/>
			<point x="82.0052490234" y="99.9951171875" type="line"/>
			<point x="290.0042724609" y="134.9951171875" type="line"/>
			<point x="292.0042724609" y="762.7072753906" type="line"/>
			<point x="290.0042724609" y="1352.0048828125" type="line"/>
			<point x="82.0052490234" y="1386.0048828125" type="line"/>
			<point x="82.0052490234" y="1500" type="line"/>
			<point x="641.3883666992" y="1500" type="line" smooth="yes"/>
			<point x="844.638671875" y="1500"/>
			<point x="1042.0267944336" y="1312"/>
			<point x="1042.0267944336" y="1169" type="qcurve" smooth="yes"/>
			<point x="1042.0267944336" y="1034"/>
			<point x="927.8586425781" y="854"/>
			<point x="789.1663208008" y="831" type="qcurve"/>
			<point x="789.1663208008" y="824" type="line"/>
			<point x="943.7665405273" y="796"/>
			<point x="1193" y="604"/>
			<point x="1144.4071655273" y="433" type="qcurve" smooth="yes"/>
			<point x="1144.4071655273" y="246"/>
			<point x="869.4760742188" y="1"/>
			<point x="654.8739013672" y="0" type="qcurve" smooth="yes"/>
		</contour>
		<contour>
			<point x="467.9945068359" y="149.5509643555" type="line"/>
			<point x="498.9603271484" y="124.3265991211" type="line"/>
			<point x="622.4016113281" y="124.3265991211" type="line" smooth="yes"/>
			<point x="796.7326049805" y="124.3265991211"/>
			<point x="960.780456543" y="286.4390258789"/>
			<point x="960.780456543" y="437.5700073242" type="qcurve" smooth="yes"/>
			<point x="960.780456543" y="580.0383911133"/>
			<point x="815.3170776367" y="739.1647338867"/>
			<point x="691.2307128906" y="739.1647338867" type="qcurve" smooth="yes"/>
			<point x="477.7359619141" y="739.1647338867" type="line"/>
			<point x="465.9945068359" y="725.5525512695" type="line"/>
		</contour>
		<contour>
			<point x="465.9945068359" y="869.5571289062" type="line"/>
			<point x="475.3005981445" y="857.8156738281" type="line"/>
			<point x="624.4625244141" y="857.8156738281" type="line" smooth="yes"/>
			<point x="752.2855834961" y="857.8156738281"/>
			<point x="859.4000854492" y="1006.6611328125"/>
			<point x="859.4000854492" y="1135.9730224609" type="qcurve" smooth="yes"/>
			<point x="859.4000854492" y="1257.8154296875"/>
			<point x="745.7684936523" y="1374.7225341797"/>
			<point x="634.9454345703" y="1374.7225341797" type="qcurve" smooth="yes"/>
			<point x="493.9603271484" y="1374.7225341797" type="line"/>
			<point x="468.9945068359" y="1356.9335327148" type="line"/>
		</contour>
	</outline>
	<anchor name="bottom" x="614" y="0"/>
	<anchor name="top" x="614" y="1500"/>
</glyph>
<glyph name="F" format="2">
	<unicode hex="0046"/>
	<advance width="1139"/>
	<outline>
		<contour>
			<point x="82.0052490234" y="0" type="line"/>
			<point x="82.0052490234" y="99.9951171875" type="line"/>
			<point x="290.0042724609" y="134.9951171875" type="line"/>
			<point x="292.0042724609" y="754" type="line"/>
			<point x="290.0042724609" y="1352.0048828125" type="line"/>
			<point x="82.0052490234" y="1386.0048828125" type="line"/>
			<point x="82.0052490234" y="1500" type="line"/>
			<point x="1089.8427734375" y="1500" type="line"/>
			<point x="1089.8427734375" y="1135.6248168945" type="line"/>
			<point x="968.8413085938" y="1135.6248168945" type="line"/>
			<point x="933.8413085938" y="1370.631652832" type="line"/>
			<point x="525.2672119141" y="1370.631652832" type="line"/>
			<point x="470.2672119141" y="1346.631652832" type="line"/>
			<point x="474.2672119141" y="760" type="line"/>
			<point x="476.2672119141" y="134.9951171875" type="line"/>
			<point x="691.1507568359" y="100.9951171875" type="line"/>
			<point x="691.1507568359" y="0" type="line"/>
		</contour>
		<contour>
			<point x="416.6368408203" y="712.5799560547" type="line"/>
			<point x="416.6368408203" y="816.9900512695" type="line"/>
			<point x="808.1065063477" y="826.9900512695" type="line"/>
			<point x="835.1065063477" y="1000.6615600586" type="line"/>
			<point x="947.9077758789" y="1000.6615600586" type="line"/>
			<point x="947.9077758789" y="530.5748291016" type="line"/>
			<point x="835.1065063477" y="530.5748291016" type="line"/>
			<point x="808.1065063477" y="702.5799560547" type="line"/>
		</contour>
	</outline>
	<anchor name="bottom" x="578" y="0"/>
	<anchor name="top" x="622" y="1500"/>
</glyph>
<glyph name="H" format="2">
	<unicode hex="0048"/>
	<advance width="1740"/>
	<outline>
		<contour>
			<point x="82.0052490234" y="0" type="line"/>
			<point x="82.0052490234" y="99.9951171875" type="line"/>
			<point x="290.0042724609" y="134.9951171875" type="line"/>
			<point x="292.0042724609" y="754" type="line"/>
			<point x="290.0042724609" y="1352.0048828125" type="line"/>
			<point x="82.0052490234" y="1386.0048828125" type="line"/>
			<point x="82.0052490234" y="1500" type="line"/>
			<point x="676.2662353516" y="1500" type="line"/>
			<point x="676.2662353516" y="1386.0048828125" type="line"/>
			<point x="470.2672119141" y="1352.0048828125" type="line"/>
			<point x="468.2672119141" y="754" type="line"/>
			<point x="470.2672119141" y="134.9951171875" type="line"/>
			<point x="676.2662353516" y="99.9951171875" type="line"/>
			<point x="676.2662353516" y="0" type="line"/>
		</contour>
		<contour>
			<point x="222.2672119141" y="711.6364746094" type="line"/>
			<point x="222.2672119141" y="843.6313476562" type="line"/>
			<point x="871.7308959961" y="835.6313476562" type="line"/>
			<point x="1536.8225708008" y="843.6313476562" type="line"/>
			<point x="1536.8225708008" y="711.6364746094" type="line"/>
			<point x="871.7308959961" y="711.6364746094" type="line"/>
		</contour>
		<contour>
			<point x="1063.8235473633" y="0" type="line"/>
			<point x="1063.8235473633" y="99.9951171875" type="line"/>
			<point x="1269.8225708008" y="134.9951171875" type="line"/>
			<point x="1271.8225708008" y="754" type="line"/>
			<point x="1269.8225708008" y="1352.0048828125" type="line"/>
			<point x="1063.8235473633" y="1386.0048828125" type="line"/>
			<point x="1063.8235473633" y="1500" type="line"/>
			<point x="1658.0845336914" y="1500" type="line"/>
			<point x="1658.0845336914" y="1386.0048828125" type="line"/>
			<point x="1450.0855102539" y="1352.0048828125" type="line"/>
			<point x="1448.0855102539" y="754" type="line"/>
			<point x="1450.0855102539" y="134.9951171875" type="line"/>
			<point x="1658.0845336914" y="99.9951171875" type="line"/>
			<point x="1658.0845336914" y="0" type="line"/>
		</contour>
	</outline>
	<anchor name="bottom" x="870" y="0"/>
	<anchor name="center" x="870" y="1079"/>
	<anchor name="top" x="870" y="1500"/>
	<anchor name="tonos" x="0" y="1500"/>
	<anchor name="cy_descender" x="1658" y="100"/>
</glyph>
<glyph name="I" format="2">
	<unicode hex="0049"/>
	<advance width="786"/>
	<outline>
		<contour>
			<point x="83.6605224609" y="0" type="line"/>
			<point x="83.6605224609" y="99.9951171875" type="line"/>
			<point x="303.1018066406" y="134.9951171875" type="line"/>
			<point x="305.1018066406" y="754" type="line"/>
			<point x="303.1018066406" y="1352.0048828125" type="line"/>
			<point x="83.6605224609" y="1386.0048828125" type="line"/>
			<point x="83.6605224609" y="1500" type="line"/>
			<point x="702.8060302734" y="1500" type="line"/>
			<point x="702.8060302734" y="1386.0048828125" type="line"/>
			<point x="483.3647460938" y="1352.0048828125" type="line"/>
			<point x="481.3647460938" y="754" type="line"/>
			<point x="483.3647460938" y="134.9951171875" type="line"/>
			<point x="702.8060302734" y="99.9951171875" type="line"/>
			<point x="702.8060302734" y="0" type="line"/>
		</contour>
	</outline>
	<anchor name="bottom" x="390" y="0"/>
	<anchor name="ogonek" x="526" y="0"/>
	<anchor name="top" x="390" y="1500"/>
	<anchor name="tonos" x="0" y="1500"/>
	<anchor name="yu_dash" x="380" y="755"/>
	<anchor name="_Yeru_I" x="82" y="0"/>
	<anchor name="liga" x="780" y="0"/>
</glyph>
<glyph name="K" format="2">
	<unicode hex="004B"/>
	<advance width="1407"/>
	<outline>
		<contour>
			<point x="82.0052490234" y="0" type="line"/>
			<point x="82.0052490234" y="99.9951171875" type="line"/>
			<point x="290.0042724609" y="134.9951171875" type="line"/>
			<point x="292.0042724609" y="754" type="line"/>
			<point x="290.0042724609" y="1352.0048828125" type="line"/>
			<point x="82.0052490234" y="1386.0048828125" type="line"/>
			<point x="82.0052490234" y="1500" type="line"/>
			<point x="674.8239746094" y="1500" type="line"/>
			<point x="674.8239746094" y="1386.0048828125" type="line"/>
			<point x="470.2672119141" y="1352.0048828125" type="line"/>
			<point x="468.2672119141" y="754" type="line"/>
			<point x="470.2672119141" y="134.9951171875" type="line"/>
			<point x="656.2662353516" y="99.9951171875" type="line"/>
			<point x="656.2662353516" y="0" type="line"/>
		</contour>
		<contour>
			<point x="365.3839111328" y="440.3394165039" type="line"/>
			<point x="365.3839111328" y="604.3345947266" type="line"/>
			<point x="1054.3544921875" y="1354.0048828125" type="line"/>
			<point x="905.1532592773" y="1387.0048828125" type="line"/>
			<point x="905.1532592773" y="1500" type="line"/>
			<point x="1444.9159545898" y="1500" type="line"/>
			<point x="1444.9159545898" y="1387.0048828125" type="line"/>
			<point x="1240.2437133789" y="1354.0048828125" type="line"/>
			<point x="777.7747802734" y="875.5480957031" type="line"/>
			<point x="733.8865966797" y="826.3493652344" type="line"/>
		</contour>
		<contour>
			<point x="633.2219238281" y="790.1254882812" type="line"/>
			<point x="740.5061035156" y="920.0201416016" type="line"/>
			<point x="1316.1002197266" y="134.9951171875" type="line"/>
			<point x="1447.7437133789" y="99.9951171875" type="line"/>
			<point x="1447.7437133789" y="0" type="line"/>
			<point x="974.2442626953" y="0" type="line"/>
			<point x="974.2442626953" y="99.9951171875" type="line"/>
			<point x="1107.4742431641" y="134.9951171875" type="line"/>
		</contour>
	</outline>
	<anchor name="bottom" x="812" y="0"/>
	<anchor name="top" x="770" y="1500"/>
</glyph>
<glyph name="N" format="2">
	<unicode hex="004E"/>
	<advance width="1603"/>
	<outline>
		<contour>
			<point x="82.0052490234" y="0" type="line"/>
			<point x="82.0052490234" y="99.9951171875" type="line"/>
			<point x="287.0042724609" y="134.9951171875" type="line"/>
			<point x="289.0042724609" y="754" type="line"/>
			<point x="287.0042724609" y="1353.0048828125" type="line"/>
			<point x="82.0052490234" y="1387.0048828125" type="line"/>
			<point x="82.0052490234" y="1500" type="line"/>
			<point x="490.7006835938" y="1500" type="line"/>
			<point x="936.7959594727" y="776.4196777344" type="line"/>
			<point x="1136.0412597656" y="439.2137451172" type="line"/>
			<point x="1193.565612793" y="331.2275390625" type="line"/>
			<point x="1204.2929077148" y="333.8051757812" type="line"/>
			<point x="1198.5321044922" y="476.8051757812" type="line"/>
			<point x="1197.0601196289" y="759.3623046875" type="line"/>
			<point x="1195.6377563477" y="1353.0048828125" type="line"/>
			<point x="988.7542114258" y="1387.0048828125" type="line"/>
			<point x="988.7542114258" y="1500" type="line"/>
			<point x="1531.4351196289" y="1500" type="line"/>
			<point x="1531.4351196289" y="1387.0048828125" type="line"/>
			<point x="1329.4360961914" y="1353.0048828125" type="line"/>
			<point x="1327.4360961914" y="735.3623046875" type="line"/>
			<point x="1323.4360961914" y="0" type="line"/>
			<point x="1191.5715332031" y="0" type="line"/>
			<point x="810.5366210938" y="623.5390625" type="line"/>
			<point x="475.36328125" y="1213.244140625" type="line"/>
			<point x="419.5114746094" y="1316.8532714844" type="line"/>
			<point x="409.5114746094" y="1314.2756347656" type="line"/>
			<point x="420.0144042969" y="1179.2756347656" type="line"/>
			<point x="419.8591308594" y="773.7294921875" type="line"/>
			<point x="421.8591308594" y="134.9951171875" type="line"/>
			<point x="625.3004150391" y="99.9951171875" type="line"/>
			<point x="625.3004150391" y="0" type="line"/>
		</contour>
	</outline>
	<anchor name="bottom" x="800" y="0"/>
	<anchor name="top" x="800" y="1500"/>
	<anchor name="engtail" x="1324" y="0"/>
	<anchor name="liga" x="1600" y="0"/>
</glyph>
<glyph name="O" format="2">
	<unicode hex="004F"/>
	<advance width="1664"/>
	<outline>
		<contour>
			<point x="81.0009765625" y="743" type="qcurve" smooth="yes"/>
			<point x="81.0009765625" y="1070.7658691406"/>
			<point x="496.3897705078" y="1519.5366210938"/>
			<point x="832.9397583008" y="1519.5366210938" type="qcurve" smooth="yes"/>
			<point x="1169.1836547852" y="1519.5366210938"/>
			<point x="1582.7017211914" y="1099.7658691406"/>
			<point x="1582.7017211914" y="758" type="qcurve" smooth="yes"/>
			<point x="1582.7017211914" y="432.2341308594"/>
			<point x="1173.1644287109" y="-17.5366210938"/>
			<point x="837.0690307617" y="-17.5366210938" type="qcurve" smooth="yes"/>
			<point x="495.6047973633" y="-17.5366210938"/>
			<point x="81.0009765625" y="405.2341308594"/>
		</contour>
		<contour>
			<point x="271.0810546875" y="779" type="qcurve" smooth="yes"/>
			<point x="271.0810546875" y="471.8723144531"/>
			<point x="587.5653076172" y="122.1486816406"/>
			<point x="834.0690307617" y="122.1486816406" type="qcurve" smooth="yes"/>
			<point x="1105.0634155273" y="122.1486816406"/>
			<point x="1393.6216430664" y="426.3173828125"/>
			<point x="1393.6216430664" y="755" type="qcurve" smooth="yes"/>
			<point x="1393.6216430664" y="1045.30859375"/>
			<point x="1081.9411010742" y="1377.323059082"/>
			<point x="832.0690307617" y="1377.323059082" type="qcurve" smooth="yes"/>
			<point x="561.0746459961" y="1377.323059082"/>
			<point x="271.0810546875" y="1060.9956054688"/>
		</contour>
	</outline>
	<anchor name="bottom" x="832" y="0"/>
	<anchor name="center" x="832" y="750"/>
	<anchor name="ogonek" x="1064" y="0"/>
	<anchor name="top" x="832" y="1500"/>
	<anchor name="topright" x="1028" y="1500"/>
	<anchor name="tonos" x="140" y="1500"/>
	<anchor name="_yu_dash" x="169" y="755"/>
</glyph>
<glyph name="Q" format="2">
	<unicode hex="0051"/>
	<advance width="1662"/>
	<outline>
		<contour>
			<point x="81.0009765625" y="745.1768188477" type="qcurve" smooth="yes"/>
			<point x="81.0009765625" y="1069.3975830078"/>
			<point x="516.1448364258" y="1522.0244140625"/>
			<point x="829.8922119141" y="1522.0244140625" type="qcurve" smooth="yes"/>
			<point x="1161.3623046875" y="1522.0244140625"/>
			<point x="1580.9602661133" y="1099.2683105469"/>
			<point x="1580.9602661133" y="758" type="qcurve" smooth="yes"/>
			<point x="1580.9602661133" y="432.7316894531"/>
			<point x="1135.4008178711" y="-17.2878417969"/>
			<point x="827.6192626953" y="-17.2878417969" type="qcurve" smooth="yes"/>
			<point x="502.0975952148" y="-17.2878417969"/>
			<point x="81.0009765625" y="419.6633300781"/>
		</contour>
		<contour>
			<point x="268.0810546875" y="776.8231811523" type="qcurve" smooth="yes"/>
			<point x="268.0810546875" y="487.237121582"/>
			<point x="576.3727416992" y="114.0509643555"/>
			<point x="827.4376220703" y="114.0509643555" type="qcurve" smooth="yes"/>
			<point x="1096.6075439453" y="114.0509643555"/>
			<point x="1388.8801879883" y="447.3773193359"/>
			<point x="1388.8801879883" y="755" type="qcurve" smooth="yes"/>
			<point x="1388.8801879883" y="1047.5860595703"/>
			<point x="1085.5022583008" y="1379.8108520508"/>
			<point x="831.0690307617" y="1379.8108520508" type="qcurve" smooth="yes"/>
			<point x="560.0746459961" y="1379.8108520508"/>
			<point x="268.0810546875" y="1078.8432006836"/>
		</contour>
		<contour>
			<point x="601.9000244141" y="-35.6362304688" type="qcurve"/>
			<point x="1289.5224609375" y="-262.6614379883" type="line"/>
			<point x="1364.3231811523" y="-262.6869506836"/>
			<point x="1448.4415283203" y="-204.5817260742"/>
			<point x="1493.305480957" y="-124.5891113281" type="qcurve"/>
			<point x="1562.3003540039" y="-157.8543701172" type="line"/>
			<point x="1505.9333496094" y="-329.0311889648"/>
			<point x="1376.0467529297" y="-429.125"/>
			<point x="1235.9183349609" y="-425.2067260742" type="qcurve"/>
			<point x="535.9313354492" y="-195.9912719727" type="line"/>
			<point x="445.9643554688" y="-195.9912719727"/>
			<point x="362.5311279297" y="-230.2504882812"/>
			<point x="293.7342529297" y="-282.1605834961" type="qcurve"/>
			<point x="240.7958984375" y="-251.8487548828" type="line"/>
			<point x="337.0084228516" y="-143.8388671875"/>
			<point x="503.0349731445" y="-24.36328125"/>
		</contour>
		<contour>
			<point x="539.9719848633" y="-54.2069091797" type="line"/>
			<point x="747.7415771484" y="434.1467285156" type="line"/>
			<point x="856.6787109375" y="337.8034667969" type="line"/>
			<point x="666.7798461914" y="-84.1965332031" type="line"/>
		</contour>
	</outline>
	<anchor name="bottom" x="832" y="0"/>
	<anchor name="top" x="823" y="1502"/>
</glyph>
<glyph name="S" format="2">
	<unicode hex="0053"/>
	<advance width="1069"/>
	<outline>
		<contour>
			<point x="36.7170410156" y="-1" type="line"/>
			<point x="36.7170410156" y="465.9856567383" type="line"/>
			<point x="157.0512695312" y="465.9856567383" type="line"/>
			<point x="170.7185058594" y="400.9826660156" type="line" smooth="yes"/>
			<point x="195.9721679688" y="284.9582519531"/>
			<point x="419.4273071289" y="134.7347412109"/>
			<point x="569.3099365234" y="134.7347412109" type="qcurve" smooth="yes"/>
			<point x="756.4826660156" y="134.7347412109"/>
			<point x="864.0501098633" y="296.7287597656"/>
			<point x="864.0501098633" y="375.2814941406" type="qcurve" smooth="yes"/>
			<point x="864.0501098633" y="510.1460571289"/>
			<point x="676.5744018555" y="644.1478271484"/>
			<point x="460.2541503906" y="723.9790649414" type="qcurve" smooth="yes"/>
			<point x="285.6602172852" y="803.5009765625"/>
			<point x="91.5968017578" y="976.4727783203"/>
			<point x="91.5968017578" y="1144.3753662109" type="qcurve" smooth="yes"/>
			<point x="91.5968017578" y="1306.6369628906"/>
			<point x="322.0121459961" y="1519.5366210938"/>
			<point x="487.5061645508" y="1519.5366210938" type="qcurve" smooth="yes"/>
			<point x="588.167175293" y="1519.5366210938"/>
			<point x="750.3923950195" y="1451.6237792969"/>
			<point x="782.6684570312" y="1424" type="qcurve"/>
			<point x="812.6684570312" y="1500" type="line"/>
			<point x="910.669921875" y="1500" type="line"/>
			<point x="910.669921875" y="1073.7954711914" type="line"/>
			<point x="800.869140625" y="1073.7954711914" type="line"/>
			<point x="786.6684570312" y="1140.0664672852" type="line" smooth="yes"/>
			<point x="765.9074707031" y="1220.0872802734"/>
			<point x="628.0031738281" y="1357.5417480469"/>
			<point x="481.5054931641" y="1357.5417480469" type="qcurve" smooth="yes"/>
			<point x="333.8406982422" y="1357.5417480469"/>
			<point x="260.6812744141" y="1224.5701904297"/>
			<point x="260.6812744141" y="1167.8121337891" type="qcurve" smooth="yes"/>
			<point x="260.6812744141" y="1094.4116821289"/>
			<point x="384.0584106445" y="963.5215454102"/>
			<point x="603.6743774414" y="878.6383666992" type="qcurve" smooth="yes"/>
			<point x="783.14453125" y="800.0111083984"/>
			<point x="1032.4976196289" y="592.6284179688"/>
			<point x="1032.4976196289" y="408.5441894531" type="qcurve" smooth="yes"/>
			<point x="1032.4976196289" y="236.4545898438"/>
			<point x="785.4961547852" y="-11.048828125"/>
			<point x="591.8966674805" y="-11.048828125" type="qcurve" smooth="yes"/>
			<point x="462.0979003906" y="-11.048828125"/>
			<point x="225.3060302734" y="36.6057128906"/>
			<point x="183.7185058594" y="86" type="qcurve"/>
			<point x="142.8518676758" y="-1" type="line"/>
		</contour>
	</outline>
	<anchor name="bottom" x="599" y="0"/>
	<anchor name="top" x="514" y="1500"/>
</glyph>
<glyph name="T" format="2">
	<unicode hex="0054"/>
	<advance width="1310"/>
	<outline>
		<contour>
			<point x="53.3947753906" y="1041.5731201172" type="line"/>
			<point x="53.3947753906" y="1500" type="line"/>
			<point x="1259.3538208008" y="1500" type="line"/>
			<point x="1259.3538208008" y="1041.5731201172" type="line"/>
			<point x="1149.352355957" y="1041.5731201172" type="line"/>
			<point x="1113.3501586914" y="1371.5825195312" type="line"/>
			<point x="761.7344360352" y="1371.5825195312" type="line"/>
			<point x="743.7344360352" y="1355.5825195312" type="line"/>
			<point x="744.7344360352" y="763.6143188477" type="line"/>
			<point x="745.7344360352" y="134.9951171875" type="line"/>
			<point x="965.0314941406" y="99.9951171875" type="line"/>
			<point x="965.0314941406" y="0" type="line"/>
			<point x="345.8859863281" y="0" type="line"/>
			<point x="345.8859863281" y="99.9951171875" type="line"/>
			<point x="565.471496582" y="134.9951171875" type="line"/>
			<point x="567.471496582" y="763.6143188477" type="line"/>
			<point x="568.471496582" y="1355.5825195312" type="line"/>
			<point x="558.471496582" y="1371.5825195312" type="line"/>
			<point x="198.3984375" y="1371.5825195312" type="line"/>
			<point x="162.3962402344" y="1041.5731201172" type="line"/>
		</contour>
	</outline>
	<anchor name="bottom" x="644" y="0"/>
	<anchor name="center" x="644" y="750"/>
	<anchor name="top" x="644" y="1500"/>
	<anchor name="cy_descender" x="951" y="100"/>
</glyph>
<glyph name="V" format="2">
	<unicode hex="0056"/>
	<advance width="1469"/>
	<outline>
		<contour>
			<point x="-26.2270507812" y="1387.0048828125" type="line"/>
			<point x="-26.2270507812" y="1500" type="line"/>
			<point x="512.7470703125" y="1500" type="line"/>
			<point x="512.7470703125" y="1387.0048828125" type="line"/>
			<point x="336.5170898438" y="1353.0048828125" type="line"/>
			<point x="582.2352905273" y="729.6279296875" type="line"/>
			<point x="715.1783447266" y="412.3803710938" type="line"/>
			<point x="754.0910644531" y="291.3312988281" type="line"/>
			<point x="764.0910644531" y="291.3312988281" type="line"/>
			<point x="801.4587402344" y="412.3803710938" type="line"/>
			<point x="975.4215698242" y="848.3266601562" type="line"/>
			<point x="1155.7985839844" y="1353.0048828125" type="line"/>
			<point x="972.8283081055" y="1387.0048828125" type="line"/>
			<point x="972.8283081055" y="1500" type="line"/>
			<point x="1493.2827148438" y="1500" type="line"/>
			<point x="1493.2827148438" y="1387.0048828125" type="line"/>
			<point x="1315.6104736328" y="1353.0048828125" type="line"/>
			<point x="1099.4900512695" y="804.4998168945" type="line"/>
			<point x="799.6768798828" y="14.9267578125" type="line"/>
			<point x="662.7922363281" y="14.9267578125" type="line"/>
			<point x="367.7684936523" y="759.0734863281" type="line"/>
			<point x="138.0029296875" y="1353.0048828125" type="line"/>
		</contour>
	</outline>
	<anchor name="bottom" x="723" y="0"/>
	<anchor name="top" x="733" y="1500"/>
</glyph>
<glyph name="d" format="2">
	<unicode hex="0064"/>
	<advance width="1214"/>
	<outline>
		<contour>
			<point x="65.4418945312" y="481.3719482422" type="qcurve" smooth="yes"/>
			<point x="65.4418945312" y="720.4356689453"/>
			<point x="339.7716064453" y="1012.9287109375"/>
			<point x="578.5069580078" y="1012.9287109375" type="qcurve" smooth="yes"/>
			<point x="651.8846435547" y="1012.9287109375"/>
			<point x="784.4887695312" y="976.3188476562"/>
			<point x="831.7239379883" y="946.6138916016" type="qcurve"/>
			<point x="824.5702514648" y="1376.0024414062" type="line"/>
			<point x="678.5702514648" y="1406.0024414062" type="line"/>
			<point x="678.5702514648" y="1500" type="line"/>
			<point x="935.0764770508" y="1529.0244140625" type="line"/>
			<point x="967.0764770508" y="1529.0244140625" type="line"/>
			<point x="999.9221801758" y="1482.0244140625" type="line"/>
			<point x="996.9221801758" y="480.1924438477" type="line"/>
			<point x="1005.9221801758" y="114.9975585938" type="line"/>
			<point x="1156.9221801758" y="79.9975585938" type="line"/>
			<point x="1156.9221801758" y="0" type="line"/>
			<point x="906.6803588867" y="0" type="line"/>
			<point x="854.7693481445" y="60" type="line"/>
			<point x="835.8477783203" y="122.0150146484" type="line"/>
			<point x="785.7600708008" y="68.6168212891"/>
			<point x="637.2200317383" y="-3.2780761719"/>
			<point x="522.6973876953" y="-3.2780761719" type="qcurve" smooth="yes"/>
			<point x="328.3608398438" y="-3.2780761719"/>
			<point x="65.4418945312" y="252.0859985352"/>
		</contour>
		<contour>
			<point x="249.5654907227" y="513.8459472656" type="qcurve" smooth="yes"/>
			<point x="249.5654907227" y="343.5344238281"/>
			<point x="420.1943359375" y="130.047668457"/>
			<point x="563.1337890625" y="130.047668457" type="qcurve" smooth="yes"/>
			<point x="662.5462036133" y="130.047668457"/>
			<point x="811.2697143555" y="211.8705444336"/>
			<point x="864.1401977539" y="273.7679443359" type="qcurve"/>
			<point x="867.8732299805" y="479.7948608398" type="line"/>
			<point x="866.8732299805" y="782.8923339844" type="line"/>
			<point x="822.9330444336" y="838.7624511719"/>
			<point x="680.3551635742" y="914.3726806641"/>
			<point x="587.1922607422" y="914.3726806641" type="qcurve" smooth="yes"/>
			<point x="435.0469970703" y="914.3726806641"/>
			<point x="249.5654907227" y="683.2551269531"/>
		</contour>
	</outline>
	<anchor name="bottom" x="604" y="0"/>
	<anchor name="center" x="876" y="1202"/>
	<anchor name="top" x="604" y="1534"/>
	<anchor name="topright" x="961" y="1000"/>
	<anchor name="liga" x="1207" y="0"/>
</glyph>
<glyph name="g" format="2">
	<unicode hex="0067"/>
	<advance width="1034"/>
	<outline>
		<contour>
			<point x="12.6895141602" y="-249.5682373047" type="qcurve" smooth="yes"/>
			<point x="12.6895141602" y="-171.3978881836"/>
			<point x="121.2330322266" y="-55.3334350586"/>
			<point x="214.9093017578" y="16.4228515625" type="qcurve"/>
			<point x="339.3405761719" y="-24.0504760742" type="line"/>
			<point x="247.099609375" y="-83.7913818359"/>
			<point x="184.7444458008" y="-194.3295898438"/>
			<point x="184.7444458008" y="-240.0369262695" type="qcurve" smooth="yes"/>
			<point x="184.7444458008" y="-320.8029785156"/>
			<point x="287.6535644531" y="-389.4553222656"/>
			<point x="504.8617553711" y="-389.4553222656" type="qcurve" smooth="yes"/>
			<point x="685.5430297852" y="-389.4553222656"/>
			<point x="883.4058837891" y="-314.132019043"/>
			<point x="883.4058837891" y="-233.7186889648" type="qcurve" smooth="yes"/>
			<point x="883.4058837891" y="-172.1059570312"/>
			<point x="689.6089477539" y="-121.4025878906"/>
			<point x="482.8181762695" y="-111.899230957" type="qcurve" smooth="yes"/>
			<point x="243.9458007812" y="-101.2048339844"/>
			<point x="56.5650634766" y="6.5869750977"/>
			<point x="56.5650634766" y="121.1508178711" type="qcurve" smooth="yes"/>
			<point x="56.5650634766" y="194.1109008789"/>
			<point x="201.4669799805" y="319.1000976562"/>
			<point x="289.7953491211" y="338.8684082031" type="qcurve"/>
			<point x="313.9742431641" y="295.8968505859" type="line"/>
			<point x="253.9211425781" y="260.8407592773"/>
			<point x="187.0443115234" y="213.7038574219"/>
			<point x="187.0443115234" y="149.4639892578" type="qcurve" smooth="yes"/>
			<point x="187.0443115234" y="100.0995483398"/>
			<point x="327.2202148438" y="50.4312744141"/>
			<point x="524.5207519531" y="44.858215332" type="qcurve" smooth="yes"/>
			<point x="795.0434570312" y="36.0729370117"/>
			<point x="1038.2375488281" y="-54.97265625"/>
			<point x="1037.4827270508" y="-192.6840209961" type="qcurve" smooth="yes"/>
			<point x="1036.7279052734" y="-336.2447509766"/>
			<point x="760.2736816406" y="-489.5317382812"/>
			<point x="472.5786743164" y="-489.5317382812" type="qcurve" smooth="yes"/>
			<point x="211.25390625" y="-489.5317382812"/>
			<point x="12.6895141602" y="-367.4490356445"/>
		</contour>
		<contour>
			<point x="72.9794921875" y="617.0681762695" type="qcurve" smooth="yes"/>
			<point x="72.9794921875" y="814.5755004883"/>
			<point x="289.0510253906" y="1014.6799316406"/>
			<point x="472.6533813477" y="1014.6799316406" type="qcurve" smooth="yes"/>
			<point x="673.3714599609" y="1014.6799316406"/>
			<point x="894.3888549805" y="823.5755004883"/>
			<point x="895.3888549805" y="622.0681762695" type="qcurve" smooth="yes"/>
			<point x="896.3888549805" y="430.1763305664"/>
			<point x="675.8674316406" y="200.7821044922"/>
			<point x="486.616027832" y="200.7821044922" type="qcurve" smooth="yes"/>
			<point x="294.8126831055" y="200.7821044922"/>
			<point x="72.9794921875" y="415.5608520508"/>
		</contour>
		<contour>
			<point x="246.2106323242" y="624.8194580078" type="qcurve" smooth="yes"/>
			<point x="246.2106323242" y="486.095703125"/>
			<point x="381.3603515625" y="298.3198852539"/>
			<point x="490.2121582031" y="298.3198852539" type="qcurve" smooth="yes"/>
			<point x="599.5346679688" y="298.3198852539"/>
			<point x="724.6480712891" y="481.3444824219"/>
			<point x="724.6480712891" y="619.0682373047" type="qcurve" smooth="yes"/>
			<point x="724.6480712891" y="741.7919921875"/>
			<point x="589.409362793" y="905.8344726562"/>
			<point x="482.5575561523" y="905.8344726562" type="qcurve" smooth="yes"/>
			<point x="374.6762084961" y="905.8344726562"/>
			<point x="246.2106323242" y="750.5432128906"/>
		</contour>
		<contour>
			<point x="505.2796020508" y="911.4010009766" type="line"/>
			<point x="517.645324707" y="992.3969726562" type="line"/>
			<point x="1036.2051391602" y="1000.3969726562" type="line"/>
			<point x="1036.2051391602" y="857.1668701172" type="line"/>
		</contour>
	</outline>
	<anchor name="bottom" x="524" y="-416"/>
	<anchor name="top" x="484" y="1000"/>
</glyph>
<glyph name="q" format="2">
	<unicode hex="0071"/>
	<advance width="1213"/>
	<outline>
		<contour>
			<point x="66.3305664062" y="488.7020874023" type="qcurve" smooth="yes"/>
			<point x="66.3305664062" y="740.7966308594"/>
			<point x="356.0560302734" y="1013.6226196289"/>
			<point x="559.7180175781" y="1013.6226196289" type="qcurve" smooth="yes"/>
			<point x="644.8604736328" y="1013.6226196289"/>
			<point x="836.6462402344" y="977.3224487305"/>
			<point x="843.2405395508" y="974.9206542969" type="qcurve"/>
			<point x="910.2405395508" y="999.1201782227" type="line"/>
			<point x="1149.4032592773" y="969.0957641602" type="line"/>
			<point x="1149.4032592773" y="876.2982177734" type="line"/>
			<point x="1026.4032592773" y="854.2982177734" type="line"/>
			<point x="1020.4032592773" y="431.6141967773" type="line"/>
			<point x="1021.4032592773" y="-366.0024414062" type="line"/>
			<point x="1164.4032592773" y="-401.0024414062" type="line"/>
			<point x="1164.4032592773" y="-480" type="line"/>
			<point x="684.1832275391" y="-480" type="line"/>
			<point x="684.1832275391" y="-401.0024414062" type="line"/>
			<point x="847.1832275391" y="-368.0024414062" type="line"/>
			<point x="854.1832275391" y="99.3734130859" type="line"/>
			<point x="801.7028808594" y="50.803894043"/>
			<point x="600.25" y="-3.2780761719"/>
			<point x="498.5076904297" y="-3.2780761719" type="qcurve" smooth="yes"/>
			<point x="340.0771484375" y="-3.2780761719"/>
			<point x="66.3305664062" y="242.7846069336"/>
		</contour>
		<contour>
			<point x="252.7186279297" y="509.2484741211" type="qcurve" smooth="yes"/>
			<point x="252.7186279297" y="338.5055541992"/>
			<point x="431.0633544922" y="119.7061157227"/>
			<point x="569.1500244141" y="119.7061157227" type="qcurve" smooth="yes"/>
			<point x="662.7578735352" y="119.7061157227"/>
			<point x="814.2405395508" y="179.4117431641"/>
			<point x="858.1832275391" y="227.9884643555" type="qcurve"/>
			<point x="858.1832275391" y="815.5176391602" type="line"/>
			<point x="819.2405395508" y="869.0018920898"/>
			<point x="683.7684326172" y="916.0137329102"/>
			<point x="596.9826049805" y="916.0137329102" type="qcurve" smooth="yes"/>
			<point x="453.2194213867" y="916.0137329102"/>
			<point x="252.7186279297" y="678.6576538086"/>
		</contour>
	</outline>
	<anchor name="bottom" x="594" y="0"/>
	<anchor name="top" x="594" y="1000"/>
</glyph>
<glyph name="v" format="2">
	<unicode hex="0076"/>
	<advance width="1043"/>
	<outline>
		<contour>
			<point x="-27.7926635742" y="899.3994140625" type="line"/>
			<point x="-27.7926635742" y="999.3969726562" type="line"/>
			<point x="411.2041625977" y="999.3969726562" type="line"/>
			<point x="411.2041625977" y="899.3994140625" type="line"/>
			<point x="291.2041625977" y="863.3994140625" type="line"/>
			<point x="444.9099731445" y="459.8890991211" type="line"/>
			<point x="496.3549804688" y="278.3255004883" type="line"/>
			<point x="512.0112304688" y="203.0290527344" type="line"/>
			<point x="522.0112304688" y="203.0290527344" type="line"/>
			<point x="538.9248657227" y="276.8158569336" type="line"/>
			<point x="641.2262573242" y="546.6062011719" type="line"/>
			<point x="758.1638183594" y="864.3994140625" type="line"/>
			<point x="633.1638183594" y="899.3994140625" type="line"/>
			<point x="633.1638183594" y="999.3969726562" type="line"/>
			<point x="1060.6760864258" y="999.3969726562" type="line"/>
			<point x="1060.6760864258" y="899.3994140625" type="line"/>
			<point x="923.6760864258" y="864.3994140625" type="line"/>
			<point x="769.4677124023" y="514.0502929688" type="line"/>
			<point x="585.7318115234" y="4.9755859375" type="line"/>
			<point x="441.1614379883" y="4.9755859375" type="line"/>
			<point x="276.3999633789" y="448.2236328125" type="line"/>
			<point x="107.2073364258" y="864.3994140625" type="line"/>
		</contour>
	</outline>
	<anchor name="bottom" x="513" y="0"/>
	<anchor name="top" x="513" y="1000"/>
</glyph>
<glyph name="x" format="2">
	<unicode hex="0078"/>
	<advance width="915"/>
	<outline>
		<contour>
			<point x="-15.2044067383" y="0" type="line"/>
			<point x="-15.2044067383" y="79.9975585938" type="line"/>
			<point x="113.7955932617" y="115.9975585938" type="line"/>
			<point x="351.8745117188" y="469.9030151367" type="line"/>
			<point x="89.9194335938" y="864.3994140625" type="line"/>
			<point x="-9.0805664062" y="899.3994140625" type="line"/>
			<point x="-9.0805664062" y="999.3969726562" type="line"/>
			<point x="371.1146240234" y="999.3969726562" type="line"/>
			<point x="371.1146240234" y="899.3994140625" type="line"/>
			<point x="291.1146240234" y="862.3994140625" type="line"/>
			<point x="432.8295898438" y="667.0622558594" type="line"/>
			<point x="450.4578857422" y="609.6576538086" type="line"/>
			<point x="460.4578857422" y="609.6576538086" type="line"/>
			<point x="474.7755126953" y="669.7759399414" type="line"/>
			<point x="601.8981323242" y="869.3994140625" type="line"/>
			<point x="512.8981323242" y="899.3994140625" type="line"/>
			<point x="512.8981323242" y="999.3969726562" type="line"/>
			<point x="877.3585205078" y="999.3969726562" type="line"/>
			<point x="877.3585205078" y="899.3994140625" type="line"/>
			<point x="758.3585205078" y="864.3994140625" type="line"/>
			<point x="532.5655517578" y="531.1372070312" type="line"/>
			<point x="826.361328125" y="115.9975585938" type="line"/>
			<point x="942.361328125" y="79.9975585938" type="line"/>
			<point x="942.361328125" y="0" type="line"/>
			<point x="497.1798706055" y="0" type="line"/>
			<point x="497.1798706055" y="79.9975585938" type="line"/>
			<point x="589.1798706055" y="114.9975585938" type="line"/>
			<point x="445.1431884766" y="325.7855834961" type="line"/>
			<point x="431.3978881836" y="376.6587524414" type="line"/>
			<point x="421.3978881836" y="376.6587524414" type="line"/>
			<point x="414.5681762695" y="322.1834716797" type="line"/>
			<point x="281.2559814453" y="114.9975585938" type="line"/>
			<point x="375.2559814453" y="79.9975585938" type="line"/>
			<point x="375.2559814453" y="0" type="line"/>
		</contour>
	</outline>
	<anchor name="bottom" x="522" y="0"/>
	<anchor name="top" x="522" y="1000"/>
	<anchor name="cy_descender" x="1043" y="80"/>
</glyph>
<glyph name="jdotless" format="2">
	<advance width="578"/>
	<outline>
		<contour>
			<point x="-23.3524169922" y="-479" type="qcurve"/>
			<point x="-23.3524169922" y="-338.2022705078" type="line"/>
			<point x="113.2476806641" y="-336.6549072266"/>
			<point x="225.1056518555" y="-225.2075195312"/>
			<point x="225.3056640625" y="-109.4074707031" type="qcurve" smooth="yes"/>
			<point x="224.3056640625" y="552" type="line"/>
			<point x="221.5056152344" y="846.3994140625" type="line"/>
			<point x="74.3056640625" y="876.3994140625" type="line"/>
			<point x="74.3056640625" y="969.3969726562" type="line"/>
			<point x="281.2998046875" y="996.4213867188" type="line"/>
			<point x="358.2998046875" y="996.4213867188" type="line"/>
			<point x="401.2998046875" y="947.4213867188" type="line"/>
			<point x="395.2998046875" y="552" type="line"/>
			<point x="398.2998046875" y="-92.9210205078" type="line" smooth="yes"/>
			<point x="399.2998046875" y="-272.2841796875"/>
			<point x="245.2671508789" y="-495.7548217773"/>
		</contour>
	</outline>
	<anchor name="bottom" x="278" y="-436"/>
	<anchor name="top" x="278" y="1000"/>
	<anchor name="_liga" x="0" y="0"/>
</glyph>
